<svg enable-background="new 0 0 256 256" height="512" viewBox="0 0 256 256" width="512" xmlns="http://www.w3.org/2000/svg"><path d="m228.847 147.808h22.205c1.352 0 2.448 1.096 2.448 2.448v74.566c0 1.352-1.096 2.448-2.448 2.448h-22.205c-1.352 0-2.448-1.096-2.448-2.448v-74.566c0-1.352 1.096-2.448 2.448-2.448z" fill="#1387ce"/><path d="m215.098 152.588h11.301v68.707h-11.301c-1.352 0-2.448-1.096-2.448-2.448v-63.812c0-1.351 1.096-2.447 2.448-2.447z" fill="#c5e3ff"/><path d="m200.349 157.326c-14.273-.603-14.809-7.25-20.832-10.727-6.897-4.786-15.092-7.351-23.487-7.351-7.834 0-17.088 0-24.063 0-4.934 0-8.97 4.037-8.97 8.97 0 4.934 4.037 8.971 8.97 8.971l20.28.041v62.742c0 .588-.146 1.138-.386 1.635h10.459c11.667 0 16.039-5.495 28.386-5.495h21.943v-58.688z" fill="#f9c1a8"/><path d="m131.967 157.189c-4.934 0-8.97-4.037-8.97-8.971 0-.157.016-.309.024-.464h-94.375c-2.088 0-3.781 1.693-3.781 3.781v68.436c0 2.088 1.693 3.781 3.781 3.781h119.82c2.088 0 3.781-1.693 3.781-3.781 0-7.443 0-46.653 0-62.742z" fill="#66bc24"/><g fill="#a0d85d"><path d="m131.967 157.189c-.392 0-.775-.034-1.154-.084 3.608 8.259 11.845 14.033 21.434 14.033v-13.909z"/><path d="m28.646 147.754h19.604c0 12.915-10.47 23.385-23.384 23.385v-19.604c-.001-2.088 1.692-3.781 3.78-3.781z"/><path d="m28.646 223.752h19.604c0-12.915-10.47-23.385-23.384-23.385v19.604c-.001 2.088 1.692 3.781 3.78 3.781z"/><path d="m128.862 223.752h19.603c2.088 0 3.781-1.693 3.781-3.781v-19.604c-12.914 0-23.384 10.47-23.384 23.385z"/><circle cx="88.556" cy="185.753" r="25.724"/></g><path d="m24.865 171.138v-19.604c0-2.088 1.693-3.781 3.781-3.781h19.604 74.77c.245-4.719 4.169-8.506 8.947-8.506h24.063c6.267 0 12.421 1.431 18.008 4.146 0-39.75 0-91.902 0-103.164 0-6.325-5.175-11.5-11.5-11.5-90.125 0-98.351 0-148.538 0-6.325 0-11.5 5.175-11.5 11.5v148.538c0 6.325 5.175 11.5 11.5 11.5h10.866v-29.129z" fill="#bf6132"/><path d="m72.316 28.73v69.544h36.784v-69.544c-15.061 0-26.578 0-36.784 0z" fill="#facb35"/><path d="m90.364 28.73c-6.631 0-12.534 0-18.048 0v69.544h18.048z" fill="#fcac27"/><path d="m251.052 229.77h-22.205c-2.728 0-4.948-2.22-4.948-4.947v-74.566c0-2.728 2.22-4.947 4.948-4.947h22.205c2.728 0 4.948 2.22 4.948 4.947v74.566c0 2.727-2.22 4.947-4.948 4.947zm-22.153-79.461v74.514l22.153-.053-.052-74.514zm-.052-2.5v2.5z"/><path d="m226.399 223.795h-11.301c-2.728 0-4.948-2.22-4.948-4.947v-63.812c0-2.728 2.22-4.947 4.948-4.947h11.301c1.381 0 2.5 1.119 2.5 2.5v68.707c0 1.38-1.119 2.499-2.5 2.499zm-11.249-68.707v63.76l8.749-.041v-63.719zm-.052-2.5v2.5z"/><path d="m179.249 186.204c-16.934 0-23.018-19.986-24.479-26.112-.057-.237-.273-.403-.525-.403h-22.496c-1.381 0-2.5-1.119-2.5-2.5s1.119-2.5 2.5-2.5h22.496c2.577 0 4.793 1.745 5.389 4.243 4.796 20.103 15.316 22.272 19.616 22.272 1.381 0 2.5 1.119 2.5 2.5s-1.12 2.5-2.501 2.5z"/><path d="m162.32 224.105h-10.459c-.86 0-1.661-.442-2.118-1.171-.458-.729-.508-1.643-.133-2.417.092-.19.137-.369.137-.547v-60.246l-17.785-.036c-6.32 0-11.465-5.146-11.465-11.471 0-6.324 5.146-11.47 11.47-11.47h24.063c8.913 0 17.497 2.676 24.829 7.739 2.079 1.219 3.542 2.711 4.957 4.154 2.923 2.982 5.686 5.799 14.597 6.184l12.258.098c1.373.011 2.48 1.127 2.48 2.5v58.688c0 1.381-1.119 2.5-2.5 2.5h-21.943c-5.853 0-9.727 1.3-13.827 2.676-4.131 1.387-8.402 2.819-14.561 2.819zm-7.573-5h7.573c5.343 0 9.047-1.243 12.969-2.559 4.301-1.443 8.748-2.936 15.417-2.936h19.443v-53.708l-9.822-.078c-.028 0-.057-.001-.085-.002-10.92-.461-14.681-4.297-17.998-7.682-1.311-1.337-2.443-2.491-3.979-3.378-.06-.034-.118-.071-.175-.111-6.509-4.517-14.138-6.904-22.062-6.904h-24.063c-3.568 0-6.47 2.902-6.47 6.47s2.902 6.471 6.47 6.471l20.285.041c1.379.003 2.495 1.121 2.495 2.5v61.876z"/><path d="m91.825 200.059h-10.457c-1.381 0-2.5-1.119-2.5-2.5s1.119-2.5 2.5-2.5h10.457c1.876 0 3.403-1.526 3.403-3.402 0-1.877-1.527-3.403-3.403-3.403h-6.538c-4.634 0-8.403-3.77-8.403-8.403s3.77-8.403 8.403-8.403h9.267c1.381 0 2.5 1.119 2.5 2.5s-1.119 2.5-2.5 2.5h-9.267c-1.876 0-3.403 1.526-3.403 3.403s1.527 3.403 3.403 3.403h6.538c4.634 0 8.403 3.77 8.403 8.403.001 4.632-3.769 8.402-8.403 8.402z"/><path d="m88.556 204.098c-1.381 0-2.5-1.119-2.5-2.5v-31.689c0-1.381 1.119-2.5 2.5-2.5s2.5 1.119 2.5 2.5v31.689c0 1.381-1.119 2.5-2.5 2.5z"/><path d="m132.017 188.253h-5.821c-1.381 0-2.5-1.119-2.5-2.5s1.119-2.5 2.5-2.5h5.821c1.381 0 2.5 1.119 2.5 2.5s-1.12 2.5-2.5 2.5z"/><path d="m50.916 188.253h-5.82c-1.381 0-2.5-1.119-2.5-2.5s1.119-2.5 2.5-2.5h5.82c1.381 0 2.5 1.119 2.5 2.5s-1.119 2.5-2.5 2.5z"/><path d="m148.466 226.252h-119.82c-3.463 0-6.281-2.817-6.281-6.281v-68.436c0-3.464 2.818-6.281 6.281-6.281h94.374c.685 0 1.34.281 1.812.777.472.497.719 1.165.685 1.849l-.02.339c0 3.567 2.902 6.47 6.47 6.47h.005l20.28.041c1.379.003 2.495 1.121 2.495 2.5v62.741c0 3.464-2.818 6.281-6.281 6.281zm-119.82-75.998c-.707 0-1.281.575-1.281 1.281v68.436c0 .706.575 1.281 1.281 1.281h119.819c.707 0 1.281-.575 1.281-1.281v-60.246l-17.785-.036c-5.628-.002-10.321-4.079-11.284-9.435z"/><path d="m24.865 202.768h-10.865c-7.72 0-14-6.28-14-14v-148.538c0-7.72 6.28-14 14-14h148.538c7.72 0 14 6.28 14 14v103.164c0 .861-.443 1.662-1.174 2.119-.73.457-1.646.507-2.419.129-5.242-2.548-11.091-3.895-16.915-3.895h-24.063c-3.438 0-6.271 2.695-6.45 6.136-.069 1.328-1.167 2.37-2.497 2.37h-94.374c-.707 0-1.281.575-1.281 1.281v48.732c0 1.382-1.119 2.502-2.5 2.502zm-10.865-171.538c-4.962 0-9 4.037-9 9v148.537c0 4.963 4.038 9 9 9h8.365v-46.232c0-3.464 2.818-6.281 6.281-6.281h92.249c1.311-4.922 5.789-8.506 11.072-8.506h24.063c5.274 0 10.566.978 15.508 2.849v-99.367c0-4.963-4.038-9-9-9z"/><path d="m109.1 100.774h-36.785c-1.381 0-2.5-1.119-2.5-2.5v-69.544c0-1.381 1.119-2.5 2.5-2.5h36.785c1.381 0 2.5 1.119 2.5 2.5v69.544c0 1.381-1.119 2.5-2.5 2.5zm-34.285-5h31.785v-64.544h-31.785z"/><path d="m90.364 100.774h-18.049c-1.381 0-2.5-1.119-2.5-2.5v-69.544c0-1.381 1.119-2.5 2.5-2.5h18.048c1.381 0 2.5 1.119 2.5 2.5v69.544c.001 1.381-1.118 2.5-2.499 2.5zm-15.549-5h13.048v-64.544h-13.048z"/><path d="m152.247 173.639c-10.29 0-19.603-6.097-23.725-15.532-.36-.825-.25-1.78.291-2.501.541-.72 1.429-1.093 2.319-.979.331.043.596.062.834.062h.005l20.28.041c1.379.003 2.495 1.121 2.495 2.5v13.909c.001 1.381-1.118 2.5-2.499 2.5zm-17.134-13.944c3.388 4.859 8.708 8.08 14.634 8.794v-8.765z"/><path d="m24.865 173.639c-1.381 0-2.5-1.119-2.5-2.5v-19.604c0-3.463 2.818-6.28 6.281-6.28h19.604c1.381 0 2.5 1.119 2.5 2.5 0 14.271-11.612 25.884-25.885 25.884zm3.781-23.385c-.707 0-1.281.574-1.281 1.28v16.956c9.522-1.141 17.095-8.714 18.236-18.236z"/><path d="m48.25 226.252h-19.604c-3.463 0-6.281-2.817-6.281-6.281v-19.604c0-1.381 1.119-2.5 2.5-2.5 14.273 0 25.885 11.612 25.885 25.885 0 1.381-1.119 2.5-2.5 2.5zm-20.885-23.236v16.955c0 .706.575 1.281 1.281 1.281h16.955c-1.141-9.523-8.713-17.096-18.236-18.236z"/><path d="m148.466 226.252h-19.604c-1.381 0-2.5-1.119-2.5-2.5 0-14.272 11.612-25.885 25.885-25.885 1.381 0 2.5 1.119 2.5 2.5v19.604c0 3.464-2.818 6.281-6.281 6.281zm-16.955-5h16.955c.707 0 1.281-.575 1.281-1.281v-16.955c-9.522 1.14-17.095 8.713-18.236 18.236z"/><path d="m88.556 213.977c-15.562 0-28.224-12.661-28.224-28.224s12.661-28.224 28.224-28.224 28.224 12.661 28.224 28.224-12.661 28.224-28.224 28.224zm0-51.448c-12.806 0-23.224 10.418-23.224 23.224s10.418 23.224 23.224 23.224 23.224-10.418 23.224-23.224-10.418-23.224-23.224-23.224z"/></svg>