<svg id="Layer_1" data-name="Layer 1" xmlns="http://www.w3.org/2000/svg" viewBox="0 0 400 300"><title>#64_logistic_twocolour</title><path d="M265,148.18l9.83-1.7s2.23,5.49-7.71,7.29Z" fill="#24285b"/><path d="M168.88,131.37a16.77,16.77,0,0,1,8-22.07c3.86-1.82,8-3,11.69-2.12,6.81,1.57,19.66,22.92,27.49,37a19.24,19.24,0,0,0,20.56,9.54L265.44,148l3,7.88-47.33,15.9a17.92,17.92,0,0,1-13.63-.92A82.38,82.38,0,0,1,168.88,131.37Z" fill="#3465bf"/><path d="M168.88,131.37a16.77,16.77,0,0,1,8-22.07c3.86-1.82,8-3,11.69-2.12,6.81,1.57,19.66,22.92,27.49,37a19.24,19.24,0,0,0,20.56,9.54L265.44,148l3,7.88-47.33,15.9a17.92,17.92,0,0,1-13.63-.92A82.38,82.38,0,0,1,168.88,131.37Z" opacity="0.08"/><rect x="219.78" y="78.71" width="73.12" height="67.93" transform="translate(-21.78 80.19) rotate(-17.07)" fill="#ffd200"/><rect x="219.78" y="78.71" width="73.12" height="67.93" transform="translate(-21.78 80.19) rotate(-17.07)" opacity="0.08"/><rect x="189.58" y="87.98" width="73.12" height="67.93" transform="translate(-25.83 71.73) rotate(-17.07)" fill="#ffd200"/><ellipse cx="207.11" cy="267.22" rx="123.11" ry="19.15" fill="#e6e6e6" opacity="0.45"/><path d="M261.86,220.27s1.26,3.39,4.35,3.62,3.92,3.23,1.16,4.05-9.95-2.67-9.95-2.67l.16-4.45Z" fill="#3465bf"/><path d="M188.65,261s-1,3.49,1.38,5.49,1.26,4.93-1.45,3.95-6.46-8-6.46-8l2.75-3.5Z" fill="#3465bf"/><polygon points="149.55 104.97 156.49 114.32 149.91 122.31 140.97 105.11 149.55 104.97" fill="#f4a28c"/><path d="M134.8,95.9A6.87,6.87,0,0,1,145,90.55c4.77,2.61,11,7.22,7.25,12.06-5.74,7.42-15.57.3-15.57.3A12.51,12.51,0,0,1,134.8,95.9Z" fill="#f4a28c"/><path d="M142.3,100.57s-2.41-1-2.53,1.56,3.57,2.52,4.2,1.06S142.3,100.57,142.3,100.57Z" fill="#f4a28c"/><path d="M135,89.13c-3.37,6.29-7,7.57-2,11.45s2.86,9.94,9.93,8.4c4.4-1,2.48-5.72.4-9.18a7.13,7.13,0,0,1-.13-7.12c.95-1.71,1.59-3.68.6-5S136.58,86.22,135,89.13Z" fill="#24285b"/><path d="M138.91,135.82a25.13,25.13,0,0,1,10.71-18c11.45-8,33-23.9,44-14.35,15.09,13.07,21,81.87,21,81.87L173,202.65S135.62,168,138.91,135.82Z" fill="#3465bf"/><path d="M152.94,115.49s1.1,70.87,60.18,56.25l1.48,13.6L173,202.65S150.2,184,140,150.56c0,0-5-16.53,4.17-27.56A27.27,27.27,0,0,1,152.94,115.49Z" opacity="0.08"/><path d="M133.05,100.58,151.26,82a.52.52,0,0,0-.61-.82L145.26,84a6.93,6.93,0,0,1-6,.32,6.88,6.88,0,0,0-5-.53C131.05,85.07,121.61,92.77,133.05,100.58Z" fill="#ffd200"/><path d="M144.06,98.16s-3.63-3.25-4.77.06,3.82,5.19,6.09,3.43S144.06,98.16,144.06,98.16Z" fill="#f4a28c"/><path d="M173,202.65s10.8,11.33,23.78,6.94S246.64,182,256.7,222.4l7.41-1.28s.37-26-14.68-35.32-34.83-.46-34.83-.46Z" fill="#24285b"/><path d="M176.6,204.7s30.17,19.47,6.1,54.07l6.61,2.71s30.4-23.17,11.74-66.2Z" fill="#24285b"/><path d="M170.9,125.88a16.76,16.76,0,0,1,8-22.07c3.86-1.82,8-3,11.7-2.13,6.8,1.58,19.65,22.92,27.48,37a19.26,19.26,0,0,0,20.57,9.55l28.82-5.7,3,7.88-47.33,15.9a18,18,0,0,1-13.63-.91A82.47,82.47,0,0,1,170.9,125.88Z" fill="#3465bf"/><path d="M170.9,125.88a16.76,16.76,0,0,1,8-22.07c3.86-1.82,8-3,11.7-2.13,6.8,1.58,19.65,22.92,27.48,37a19.26,19.26,0,0,0,20.57,9.55l28.82-5.7,3,7.88-47.33,15.9a18,18,0,0,1-13.63-.91A82.47,82.47,0,0,1,170.9,125.88Z" fill="#fff" opacity="0.46"/><path d="M267.88,143.66l9.83-1.71s2.23,5.49-7.71,7.29Z" fill="#24285b"/><rect x="264.91" y="74" width="9.93" height="17.51" transform="translate(-12.4 82.84) rotate(-17.07)" fill="#fff" opacity="0.22"/><rect x="197.15" y="27.27" width="62.26" height="57.84" transform="translate(-6.44 69.46) rotate(-17.07)" fill="#ffd200"/><rect x="197.15" y="27.27" width="62.26" height="57.84" transform="translate(-6.44 69.46) rotate(-17.07)" opacity="0.08"/><rect x="171.43" y="35.16" width="62.26" height="57.84" transform="translate(-9.89 62.27) rotate(-17.07)" fill="#ffd200"/><rect x="234.6" y="23.04" width="8.45" height="14.91" transform="translate(1.57 71.43) rotate(-17.07)" fill="#fff" opacity="0.22"/><rect x="230.58" y="94.86" width="15.95" height="14.59" transform="translate(-19.48 74.5) rotate(-17.07)" fill="#fff" opacity="0.46"/><rect x="202.75" y="40.72" width="15.95" height="14.59" transform="translate(-4.81 63.95) rotate(-17.07)" fill="#fff" opacity="0.46"/><polygon points="180.28 97.59 263.62 65.24 266.33 74.08 240.81 82.6 181.22 100.2 180.28 97.59" opacity="0.05"/><rect x="51.5" y="48.92" width="48.51" height="30.33" transform="translate(23.1 -20.02) rotate(17.72)" fill="#e6e6e6"/><polygon points="57.27 42.26 74.56 67.82 103.47 57.02 57.27 42.26" fill="#c9c9c9"/><g opacity="0.73"><path d="M68.33,89.68s-.13.51-.35,1.46" fill="none" stroke="#c9c9c9" stroke-linecap="round" stroke-linejoin="round" stroke-width="2"/><path d="M65.76,103.22c-4.24,29.19-6.12,95,64.75,88.69" fill="none" stroke="#c9c9c9" stroke-linecap="round" stroke-linejoin="round" stroke-width="2" stroke-dasharray="3.07 12.29"/><path d="M136.62,191.21l1.49-.21" fill="none" stroke="#c9c9c9" stroke-linecap="round" stroke-linejoin="round" stroke-width="2"/></g></svg>