<svg xmlns="http://www.w3.org/2000/svg" viewBox="0 0 400 300"><g id="_271_order_confirmed_flatline" data-name="#271_order_confirmed_flatline"><polygon points="48.91 52.17 351.09 52.17 351.09 229.34 106.12 229.34 87.96 256.58 87.96 229.34 48.91 229.34 48.91 52.17" fill="#fff"/><path d="M88,257.08l-.14,0a.5.5,0,0,1-.36-.48V229.84H48.91a.51.51,0,0,1-.5-.5V52.17a.5.5,0,0,1,.5-.5H351.09a.5.5,0,0,1,.5.5V229.34a.51.51,0,0,1-.5.5H106.39l-18,27A.52.52,0,0,1,88,257.08ZM49.41,228.84H88a.5.5,0,0,1,.5.5v25.59l17.25-25.87a.49.49,0,0,1,.41-.22H350.59V52.67H49.41Z" fill="#231f20"/><ellipse cx="117.59" cy="189.27" rx="37.15" ry="3.99" fill="#d1d3d4"/><polygon points="105.94 163.57 102.08 112.68 144.01 110.95 147.25 163.84 105.94 163.57" fill="#3465bf"/><path d="M163.78,177.38H97.9A6.08,6.08,0,0,1,92.28,169l2.26-5.45L85.21,106.6l-13.94-3.48a.5.5,0,0,1-.36-.61.48.48,0,0,1,.6-.36l14.27,3.56a.5.5,0,0,1,.37.41l9.4,57.37a.65.65,0,0,1,0,.28l-2.31,5.58a5.08,5.08,0,0,0,4.69,7h65.88a.5.5,0,0,1,0,1Z" fill="#231f20"/><circle cx="150.67" cy="185.28" r="5.08" fill="#231f20"/><circle cx="102.08" cy="185.28" r="5.08" fill="#231f20"/><path d="M160.81,164.34h0L99.27,164a.51.51,0,0,1-.5-.45L94,122a.47.47,0,0,1,.13-.39.45.45,0,0,1,.37-.17l80.18,1.3a.5.5,0,0,1,.47.66L161.28,164A.5.5,0,0,1,160.81,164.34ZM99.72,163l60.73.37L174,123.76l-78.92-1.28Z" fill="#231f20"/><path d="M110.07,164a.51.51,0,0,1-.5-.47l-2-41.34a.51.51,0,0,1,.48-.53.5.5,0,0,1,.52.48l2,41.34a.5.5,0,0,1-.47.52Z" fill="#231f20"/><path d="M123,164.11a.5.5,0,0,1-.5-.5V122.43a.51.51,0,0,1,.5-.5.5.5,0,0,1,.5.5v41.18A.5.5,0,0,1,123,164.11Z" fill="#231f20"/><path d="M137.9,164.07h0a.5.5,0,0,1-.48-.52l2.09-40.87a.5.5,0,0,1,.53-.47.49.49,0,0,1,.47.52L138.4,163.6A.49.49,0,0,1,137.9,164.07Z" fill="#231f20"/><path d="M150.67,164.11h-.06a.51.51,0,0,1-.44-.56l5.08-40.65a.5.5,0,0,1,1,.12l-5.08,40.65A.51.51,0,0,1,150.67,164.11Z" fill="#231f20"/><path d="M135.42,115.29h0a.5.5,0,0,1-.48-.52c0-.11.28-11.81-2.72-19.25a6.55,6.55,0,0,0-5.21-4c-4.78-.93-11.28,1.44-13.91,4.16-3.81,4-.55,17.88-.52,18a.49.49,0,0,1-.37.6.5.5,0,0,1-.6-.37c-.14-.59-3.42-14.58.77-18.94,2.81-2.92,9.58-5.46,14.82-4.46a7.57,7.57,0,0,1,5.94,4.62c3.09,7.63,2.81,19.16,2.8,19.65A.51.51,0,0,1,135.42,115.29Z" fill="#231f20"/><path d="M95.06,164.07a.49.49,0,0,1-.5-.48.5.5,0,0,1,.48-.52l4.22-.1a.49.49,0,0,1,.51.48.5.5,0,0,1-.49.52l-4.21.1Z" fill="#231f20"/><circle cx="167.4" cy="119.13" r="16.33" fill="#fff"/><path d="M167.4,136a16.83,16.83,0,1,1,16.83-16.83A16.85,16.85,0,0,1,167.4,136Zm0-32.66a15.83,15.83,0,1,0,15.83,15.83A15.85,15.85,0,0,0,167.4,103.3Z" fill="#231f20"/><path d="M177.48,114.14a3.17,3.17,0,0,1-.33.46l-11.81,11.78c-.41.41-.72.41-1.12,0l-6.64-6.86a.65.65,0,0,1,0-1.06l1.67-1.5a.63.63,0,0,1,1,0l3.93,4a.66.66,0,0,0,1.12,0l9.17-9.14a.66.66,0,0,1,1.1,0c.51.52,1,1,1.55,1.56a5,5,0,0,1,.32.44Z" fill="#3465bf"/><path d="M230.29,110.35a4.81,4.81,0,0,1-.34,1.8,4.44,4.44,0,0,1-.95,1.41,4.3,4.3,0,0,1-1.42.92,4.88,4.88,0,0,1-1.8.33,4.8,4.8,0,0,1-1.8-.33,4.3,4.3,0,0,1-1.42-.92,4.41,4.41,0,0,1-.94-1.41,5.1,5.1,0,0,1,0-3.61,4.06,4.06,0,0,1,.94-1.4,4.27,4.27,0,0,1,1.42-.91,5,5,0,0,1,1.8-.32,5.09,5.09,0,0,1,1.8.32,4.27,4.27,0,0,1,1.42.91,4.08,4.08,0,0,1,.95,1.4A4.78,4.78,0,0,1,230.29,110.35Zm-1.29,0a3.79,3.79,0,0,0-.22-1.31,3.46,3.46,0,0,0-.65-1.08,3,3,0,0,0-1-.74,3.16,3.16,0,0,0-1.33-.27,3.19,3.19,0,0,0-1.33.27,3,3,0,0,0-1,.74,3.43,3.43,0,0,0-.64,1.08,3.87,3.87,0,0,0,0,2.63,3.23,3.23,0,0,0,.65,1.09,3,3,0,0,0,1,.72,3.11,3.11,0,0,0,1.32.26,3.22,3.22,0,0,0,1.33-.26,3,3,0,0,0,1-.72,3.4,3.4,0,0,0,.65-1.09A3.81,3.81,0,0,0,229,110.35Z"/><path d="M231.84,109.56c0-.24,0-.45,0-.64h1.07c0,.15,0,.31,0,.5s0,.34,0,.46h0a2.11,2.11,0,0,1,.7-.81,1.89,1.89,0,0,1,1-.3,1.87,1.87,0,0,1,.45,0l0,1a2.12,2.12,0,0,0-.52-.06,1.58,1.58,0,0,0-.71.15,1.37,1.37,0,0,0-.49.4,1.6,1.6,0,0,0-.3.58,2.59,2.59,0,0,0-.09.68v3h-1.13v-4.45C231.85,110,231.84,109.8,231.84,109.56Z"/><path d="M240.51,113.7a2.08,2.08,0,0,1-.88.78,2.64,2.64,0,0,1-1.17.27,2.84,2.84,0,0,1-1.19-.24,2.61,2.61,0,0,1-.9-.63,2.81,2.81,0,0,1-.57-1,3.28,3.28,0,0,1-.21-1.17,3.2,3.2,0,0,1,.21-1.17,2.79,2.79,0,0,1,.58-1,2.61,2.61,0,0,1,.9-.63,2.81,2.81,0,0,1,1.17-.23,2.46,2.46,0,0,1,1.21.29,2.6,2.6,0,0,1,.82.71h0v-4.22h1.13v9h-1.09v-.89Zm-3.74-2a2.53,2.53,0,0,0,.12.77,2,2,0,0,0,.36.65,1.68,1.68,0,0,0,.59.46,1.73,1.73,0,0,0,.81.17,1.86,1.86,0,0,0,.79-.16,2,2,0,0,0,1-1.1,2.07,2.07,0,0,0,.14-.78,2,2,0,0,0-.14-.77,2,2,0,0,0-.39-.66,1.79,1.79,0,0,0-.6-.45,2,2,0,0,0-1.6,0,1.66,1.66,0,0,0-.59.45,1.92,1.92,0,0,0-.36.66A2.46,2.46,0,0,0,236.77,111.75Z"/><path d="M248.91,111.71v.19a1.15,1.15,0,0,1,0,.19h-4.52a1.54,1.54,0,0,0,.16.67,1.69,1.69,0,0,0,.4.55,1.83,1.83,0,0,0,.58.36,1.85,1.85,0,0,0,.7.13,1.88,1.88,0,0,0,1-.25,2,2,0,0,0,.66-.61l.79.64a2.8,2.8,0,0,1-1.07.88,3.25,3.25,0,0,1-1.38.29,3.16,3.16,0,0,1-1.2-.22,2.74,2.74,0,0,1-1.57-1.54,3.32,3.32,0,0,1,0-2.43,2.57,2.57,0,0,1,.62-1A2.71,2.71,0,0,1,245,109a3,3,0,0,1,1.17-.22,3.17,3.17,0,0,1,1.14.2,2.28,2.28,0,0,1,.86.59,2.57,2.57,0,0,1,.55.92A3.69,3.69,0,0,1,248.91,111.71Zm-1.15-.45a2.44,2.44,0,0,0-.11-.63,1.44,1.44,0,0,0-.3-.51,1.48,1.48,0,0,0-.5-.34,1.77,1.77,0,0,0-.69-.13,1.86,1.86,0,0,0-.67.13,1.75,1.75,0,0,0-.56.34,1.79,1.79,0,0,0-.38.51,1.48,1.48,0,0,0-.17.63Z"/><path d="M250.46,109.56c0-.24,0-.45,0-.64h1.07c0,.15,0,.31,0,.5s0,.34,0,.46h0a2,2,0,0,1,.7-.81,1.86,1.86,0,0,1,1-.3,1.84,1.84,0,0,1,.44,0l0,1a2.1,2.1,0,0,0-.51-.06,1.55,1.55,0,0,0-.71.15,1.41,1.41,0,0,0-.5.4,1.58,1.58,0,0,0-.29.58,2.24,2.24,0,0,0-.1.68v3h-1.13v-4.45C250.47,110,250.47,109.8,250.46,109.56Z"/><path d="M265.16,113.28a3.82,3.82,0,0,1-1.31,1.1,4,4,0,0,1-1.93.43,4.71,4.71,0,0,1-1.79-.33,4.3,4.3,0,0,1-1.42-.92,4.23,4.23,0,0,1-.93-1.41,4.81,4.81,0,0,1-.34-1.8,4.6,4.6,0,0,1,.35-1.81,3.93,3.93,0,0,1,.94-1.4,4.47,4.47,0,0,1,1.44-.91,5,5,0,0,1,1.8-.32,4.28,4.28,0,0,1,.87.09,3.69,3.69,0,0,1,.86.25,3.52,3.52,0,0,1,.74.41,2.85,2.85,0,0,1,.58.57l-.94.71a2.44,2.44,0,0,0-.88-.71A2.84,2.84,0,0,0,262,107a3.21,3.21,0,0,0-1.34.27,3,3,0,0,0-1,.74A3.12,3.12,0,0,0,259,109a3.8,3.8,0,0,0-.23,1.31,3.92,3.92,0,0,0,.22,1.34,3.26,3.26,0,0,0,.64,1.08,2.74,2.74,0,0,0,1,.72,3.11,3.11,0,0,0,1.32.27,3,3,0,0,0,1.31-.29,2.45,2.45,0,0,0,1-.84Z"/><path d="M271.93,111.75a2.92,2.92,0,0,1-.24,1.2,2.75,2.75,0,0,1-.64,1,3.05,3.05,0,0,1-1,.63,3.47,3.47,0,0,1-2.43,0,2.93,2.93,0,0,1-1.84-2.78,3,3,0,0,1,.23-1.21,2.91,2.91,0,0,1,.64-.93,2.88,2.88,0,0,1,1-.62,3.47,3.47,0,0,1,2.43,0,3,3,0,0,1,1,.62,2.76,2.76,0,0,1,.64.93A3,3,0,0,1,271.93,111.75Zm-1.18,0a2.19,2.19,0,0,0-.13-.77,1.79,1.79,0,0,0-.36-.65,1.69,1.69,0,0,0-.6-.45,1.89,1.89,0,0,0-.81-.17,1.86,1.86,0,0,0-.81.17,1.69,1.69,0,0,0-.6.45,2,2,0,0,0-.37.65,2.43,2.43,0,0,0-.12.77,2.54,2.54,0,0,0,.12.78,2.2,2.2,0,0,0,.37.65,1.74,1.74,0,0,0,1.41.62,1.89,1.89,0,0,0,.81-.16,1.85,1.85,0,0,0,.6-.46,2,2,0,0,0,.36-.65A2.28,2.28,0,0,0,270.75,111.75Z"/><path d="M274.51,108.92c0,.15,0,.31,0,.49s0,.33,0,.45h0a1.52,1.52,0,0,1,.3-.43,2,2,0,0,1,.42-.34,2.32,2.32,0,0,1,.53-.24,2.35,2.35,0,0,1,.6-.08,2.3,2.3,0,0,1,.95.18,2.06,2.06,0,0,1,.66.5,2.22,2.22,0,0,1,.39.73,3.26,3.26,0,0,1,.12.9v3.51h-1.12v-3.14a3.52,3.52,0,0,0-.06-.66,1.39,1.39,0,0,0-.2-.55,1,1,0,0,0-.39-.38,1.28,1.28,0,0,0-.65-.15,1.37,1.37,0,0,0-1.1.51,2.07,2.07,0,0,0-.42,1.36v3h-1.13v-4.45c0-.15,0-.34,0-.58s0-.45,0-.64Z"/><path d="M283.15,109.85h-1.32v4.74H280.7v-4.74h-1.13v-.93h1.13v-1.18a4,4,0,0,1,.11-.93,1.89,1.89,0,0,1,.38-.73,1.73,1.73,0,0,1,.66-.49,2.33,2.33,0,0,1,1-.18,3,3,0,0,1,.71.08l-.13,1-.26-.06-.31,0a1.11,1.11,0,0,0-.52.11.81.81,0,0,0-.3.31,1.36,1.36,0,0,0-.15.43,4.36,4.36,0,0,0,0,.51v1.18h1.32Zm2.42-3a.64.64,0,0,1-.22.51.74.74,0,0,1-.53.21.7.7,0,0,1-.52-.21.71.71,0,0,1,0-1,.7.7,0,0,1,.52-.21.74.74,0,0,1,.53.21A.67.67,0,0,1,285.57,106.88Zm-.18,7.71h-1.13v-5.67h1.13Z"/><path d="M287.35,109.56c0-.24,0-.45,0-.64h1.07c0,.15,0,.31,0,.5s0,.34,0,.46h0a2.11,2.11,0,0,1,.7-.81,1.89,1.89,0,0,1,1-.3,1.87,1.87,0,0,1,.45,0l0,1a2.12,2.12,0,0,0-.52-.06,1.58,1.58,0,0,0-.71.15,1.37,1.37,0,0,0-.49.4,1.6,1.6,0,0,0-.3.58,2.59,2.59,0,0,0-.09.68v3h-1.13v-4.45C287.36,110,287.35,109.8,287.35,109.56Z"/><path d="M293.5,109.09a2,2,0,0,1,1.12-.32,2.14,2.14,0,0,1,1,.26,1.81,1.81,0,0,1,.72.87,2,2,0,0,1,.81-.84,2.43,2.43,0,0,1,2.07-.11,1.86,1.86,0,0,1,.66.5,1.91,1.91,0,0,1,.39.73,2.92,2.92,0,0,1,.13.9v3.51h-1.13v-3.14a3.52,3.52,0,0,0-.06-.66,1.79,1.79,0,0,0-.2-.55,1.09,1.09,0,0,0-.39-.38,1.13,1.13,0,0,0-.61-.15,1.24,1.24,0,0,0-.66.17,1.36,1.36,0,0,0-.45.41,1.76,1.76,0,0,0-.25.58,3,3,0,0,0-.08.66v3.06h-1.13v-3.37a2.87,2.87,0,0,0-.06-.61,1.34,1.34,0,0,0-.2-.47,1,1,0,0,0-.37-.31,1.23,1.23,0,0,0-.57-.12,1.3,1.3,0,0,0-1,.51,2.12,2.12,0,0,0-.41,1.36v3H291.7v-4.45c0-.15,0-.34,0-.58s0-.45,0-.64h1.07c0,.15,0,.31,0,.49s0,.33,0,.45h0A1.81,1.81,0,0,1,293.5,109.09Z"/><path d="M307.66,111.71v.19a1.15,1.15,0,0,1,0,.19h-4.52a1.54,1.54,0,0,0,.16.67,1.69,1.69,0,0,0,.4.55,1.83,1.83,0,0,0,.58.36,1.85,1.85,0,0,0,.7.13,1.88,1.88,0,0,0,1-.25,2,2,0,0,0,.66-.61l.79.64a2.8,2.8,0,0,1-1.07.88,3.25,3.25,0,0,1-1.38.29,3.16,3.16,0,0,1-1.2-.22A2.74,2.74,0,0,1,302.2,113a3.32,3.32,0,0,1,0-2.43,2.8,2.8,0,0,1,1.55-1.57,3,3,0,0,1,1.17-.22,3.17,3.17,0,0,1,1.14.2,2.28,2.28,0,0,1,.86.59,2.57,2.57,0,0,1,.55.92A3.69,3.69,0,0,1,307.66,111.71Zm-1.15-.45a2.44,2.44,0,0,0-.11-.63,1.44,1.44,0,0,0-.3-.51,1.48,1.48,0,0,0-.5-.34,1.77,1.77,0,0,0-.69-.13,1.86,1.86,0,0,0-.67.13,1.75,1.75,0,0,0-.56.34,1.79,1.79,0,0,0-.38.51,1.48,1.48,0,0,0-.17.63Z"/><path d="M313.76,113.7a2.14,2.14,0,0,1-.88.78,2.7,2.7,0,0,1-1.17.27,2.84,2.84,0,0,1-1.19-.24,2.61,2.61,0,0,1-.9-.63,3,3,0,0,1-.58-1,3.51,3.51,0,0,1-.2-1.17,3.42,3.42,0,0,1,.2-1.17,3,3,0,0,1,.58-1,2.81,2.81,0,0,1,2.07-.86,2.5,2.5,0,0,1,1.22.29,2.56,2.56,0,0,1,.81.71h0v-4.22h1.12v9h-1.09v-.89Zm-3.75-2a2.53,2.53,0,0,0,.12.77,2,2,0,0,0,.36.65,1.92,1.92,0,0,0,2.19.47,2,2,0,0,0,.61-.45,1.94,1.94,0,0,0,.39-.65,2.29,2.29,0,0,0,.14-.78,2.23,2.23,0,0,0-.14-.77,2,2,0,0,0-.39-.66,1.83,1.83,0,0,0-.61-.45,1.79,1.79,0,0,0-.78-.17,1.9,1.9,0,0,0-.82.17,1.75,1.75,0,0,0-.59.45,1.92,1.92,0,0,0-.36.66A2.46,2.46,0,0,0,310,111.75Z"/><path d="M318.68,113.88a.8.8,0,0,1-.81.78.77.77,0,0,1-.57-.23.76.76,0,0,1-.23-.54.79.79,0,0,1,.23-.56.85.85,0,0,1,1.15,0A.79.79,0,0,1,318.68,113.88Zm-.22-1.76h-1.19v-6h1.19Z"/><path d="M313,132.19H220.69a.5.5,0,0,1-.5-.5.5.5,0,0,1,.5-.5H313a.5.5,0,0,1,.5.5A.5.5,0,0,1,313,132.19Z" fill="#d1d3d4"/><path d="M301.21,152.39H220.69a.5.5,0,0,1-.5-.5.5.5,0,0,1,.5-.5h80.52a.5.5,0,0,1,.5.5A.5.5,0,0,1,301.21,152.39Z" fill="#d1d3d4"/><rect x="220.69" y="167.81" width="79.4" height="18.39" rx="9.2" fill="#d1d3d4"/></g></svg>