<?xml version="1.0"?>
<svg xmlns="http://www.w3.org/2000/svg" xmlns:xlink="http://www.w3.org/1999/xlink" xmlns:svgjs="http://svgjs.com/svgjs" version="1.1" width="512" height="512" x="0" y="0" viewBox="0 0 512 512" style="enable-background:new 0 0 512 512" xml:space="preserve" class=""><g>
<circle xmlns="http://www.w3.org/2000/svg" style="" cx="256" cy="256" r="256" fill="#85a7e5" data-original="#ffd400" class=""/>
<path xmlns="http://www.w3.org/2000/svg" style="" d="M512,256c0-0.116-0.004-0.231-0.004-0.347L375.342,119L100.125,374.733l136.543,136.543  C243.05,511.753,249.496,512,256,512C397.385,512,512,397.385,512,256z" fill="#5277bc" data-original="#ff9f00" class=""/>
<path xmlns="http://www.w3.org/2000/svg" style="" d="M100.124,155.533v219.2h112.584C218.736,385.51,235.359,393,256,393s37.264-7.49,43.292-18.267  h112.584v-219.2H100.124z" fill="#000000" data-original="#5a5a5a" class=""/>
<path xmlns="http://www.w3.org/2000/svg" style="" d="M411.876,155.533v219.2H299.292C293.264,385.51,276.641,393,256,393V155.533H411.876z" fill="#040000" data-original="#444444" class=""/>
<path xmlns="http://www.w3.org/2000/svg" style="" d="M270.43,119L256,133.43L241.57,119H136.658v219.2h97.239L256,360.302l22.103-22.102h97.239V119  H270.43z" fill="#e7e7e7" data-original="#e7e7e7" class=""/>
<polygon xmlns="http://www.w3.org/2000/svg" style="" points="375.342,119 375.342,338.2 278.103,338.2 256,360.302 256,133.43 270.43,119 " fill="#d3d3d8" data-original="#d3d3d8" class=""/>
<g xmlns="http://www.w3.org/2000/svg">
</g>
<g xmlns="http://www.w3.org/2000/svg">
</g>
<g xmlns="http://www.w3.org/2000/svg">
</g>
<g xmlns="http://www.w3.org/2000/svg">
</g>
<g xmlns="http://www.w3.org/2000/svg">
</g>
<g xmlns="http://www.w3.org/2000/svg">
</g>
<g xmlns="http://www.w3.org/2000/svg">
</g>
<g xmlns="http://www.w3.org/2000/svg">
</g>
<g xmlns="http://www.w3.org/2000/svg">
</g>
<g xmlns="http://www.w3.org/2000/svg">
</g>
<g xmlns="http://www.w3.org/2000/svg">
</g>
<g xmlns="http://www.w3.org/2000/svg">
</g>
<g xmlns="http://www.w3.org/2000/svg">
</g>
<g xmlns="http://www.w3.org/2000/svg">
</g>
<g xmlns="http://www.w3.org/2000/svg">
</g>
</g></svg>
