<svg height="512" viewBox="0 0 60 59" width="512" xmlns="http://www.w3.org/2000/svg"><g id="Page-1" fill="none" fill-rule="evenodd"><g id="026---Idea" fill-rule="nonzero"><path id="Shape" d="m25.45 50.56-.45 5.44h-21.57c-.59812887.0019241-1.16572357-.2639571-1.54711282-.7247217-.38138924-.4607647-.53653535-1.0680425-.42288718-1.6552783l4.38-22.48c.09088666-.4696413.50164591-.8091464.98-.81h2.78l-3.33 20.02c-.05367853.34297.07290024.6894277.33503285.9170157.2621326.227588.62292878.3042775.95496715.2029843 5.7766583-1.8869298 11.9516903-2.2010315 17.89-.91z" fill="#a0522d"/><path id="Shape" d="m56.57 56h-21.57l-.45-5.44c5.9383097-1.2910315 12.1133417-.9769298 17.89.91.3320384.1012932.6928345.0246037.9549672-.2029843.2621326-.227588.3887113-.5740457.3350328-.9170157l-3.33-20.02h2.78c.4783541.0008536.8891133.3403587.98.81l4.38 22.48c.1136482.5872358-.0414979 1.1945136-.4228872 1.6552783-.3813892.4607646-.9489839.7266458-1.5471128.7247217z" fill="#a0522d"/><path id="Shape" d="m58.54 53.62-4.38-22.48c-.0908867-.4696413-.5016459-.8091464-.98-.81h-2.78l.007.04c.3795812.0880398.673455.3885482.753.77l4.38 22.48c.1136482.5872358-.0414979 1.1945136-.4228872 1.6552783-.3813892.4607646-.9489839.7266458-1.5471128.7247217h3c.5981289.0019241 1.1657236-.2639571 1.5471128-.7247217.3813893-.4607647.5365354-1.0680425.4228872-1.6552783z" fill="#783e22"/><path id="Shape" d="m52.44 51.47c-5.7766583-1.8869298-11.9516903-2.2010315-17.89-.91-1.5622235.3219753-3.0869896.8045387-4.55 1.44-1.4630104-.6354613-2.9877765-1.1180247-4.55-1.44-5.9383097-1.2910315-12.1133417-.9769298-17.89.91-.33203837.1012932-.69283455.0246037-.95496715-.2029843-.26213261-.227588-.38871138-.5740457-.33503285-.9170157l3.33-20.02.28-1.69c.07166701-.4288869.4102856-.7634743.84-.83.68-.1 1.38-.2 2.08-.28 1.2219719 2.3753787 3.6687385 3.8689097 6.34 3.87.8427205-.00119 1.6787077-.1501108 2.47-.44.6147653 1.7825154 2.1354976 3.1004217 3.9873107 3.4555074s3.7521759-.3068247 4.9826893-1.7355074c1.0011055.3893957 2.0658301.5894554 3.14.59h.06c.21 1.8 1.15 2.86 4.29 3.91.9622305.3072051 1.820609.8748425 2.48 1.64.5878002.7282034 1.5838349.9843266 2.45.63.7625169-.3293774 1.2572891-1.0793893 1.26-1.91.0010516-.2173042-.0327094-.4333743-.1-.64-.286648-.9548393-.7329607-1.8542271-1.32-2.66 1.9865125-1.0689229 3.380576-2.9816222 3.79-5.2.3896371-.4311036.7040191-.9246496.93-1.46.58.07 1.15.14 1.72.23.4297144.0665257.768333.4011131.84.83l.28 1.69 3.33 20.02c.0536785.34297-.0729002.6894277-.3350328.9170157-.2621327.227588-.6229288.3042775-.9549672.2029843z" fill="#f5f5f5"/><path id="Shape" d="m53.73 50.35-3.33-20.02-.28-1.69c-.071667-.4288869-.4102856-.7634743-.84-.83-.57-.09-1.14-.16-1.72-.23-.1370143.3126931-.3044891.6111333-.5.891.0240562.0544997.0431339.1110634.057.169l.28 1.69 3.33 20.02c.0320035.2055495-.0030617.4159408-.1.6.6.157 1.2.326 1.807.521.3330155.1040432.6961541.0284819.9600281-.199761s.3909582-.5767091.3359719-.921239z" fill="#cfd8dc"/><path id="Shape" d="m35 56c0 1.1-2.24 2-5 2s-5-.9-5-2l.45-5.44c1.5622235.3219753 3.0869896.8045387 4.55 1.44 1.4630104-.6354613 2.9877765-1.1180247 4.55-1.44z" fill="#783e22"/><path id="Shape" d="m48 25.49c.0039557.7200627-.146063 1.4326516-.44 2.09-.2259809.5353504-.5403629 1.0288964-.93 1.46-.409424 2.2183778-1.8034875 4.1310771-3.79 5.2.5870393.8057729 1.033352 1.7051607 1.32 2.66.0672906.2066257.1010516.4226958.1.64-.0027109.8306107-.4974831 1.5806226-1.26 1.91-.8661651.3543266-1.8621998.0982034-2.45-.63-.659391-.7651575-1.5177695-1.3327949-2.48-1.64-3.14-1.05-4.08-2.11-4.29-3.91h-.06c-1.0741699-.0005446-2.1388945-.2006043-3.14-.59-1.2305134 1.4286827-3.1308762 2.0905931-4.9826893 1.7355074s-3.3725454-1.672992-3.9873107-3.4555074c-.7912923.2898892-1.6272795.43881-2.47.44-2.70273-.0018834-5.1730736-1.5286339-6.383464-3.9451826-1.2103905-2.4165488-.9536358-5.3092364.663464-7.4748174-.1202827-.3265626-.1812409-.671992-.18-1.02-.0030106-1.4856625 1.0435767-2.7666855 2.5-3.06-.01-.12-.02-.24-.02-.37.0011035-2.2307731 1.8092269-4.0388965 4.04-4.04.6063174-.0028859 1.2051448.1339889 1.75.4 1.0645952-1.7923932 2.9952852-2.89075816 5.08-2.89 1.430349-.00519326 2.8121729.51833279 3.88 1.47.6130013-.98880464 1.7280309-1.55114416 2.8875588-1.45627371 1.1595278.09487046 2.1683209.83097731 2.6124412 1.90627371.2855781-.0318944.5726499-.0485846.86-.05 3.8745981.006417 7.09894 2.9787215 7.42 6.84h.03c.8239067-.0000043 1.6139231.3279743 2.1955741.9115017.5816511.5835273.9070837 1.3745959.9044259 2.1984983-.0019397.5387729-.1395014 1.0683853-.4 1.54.6636194.9086143 1.0208581 2.0048467 1.02 3.13z" fill="#e91e63"/><path id="Shape" d="m46.98 22.36c.2604986-.4716147.3980603-1.0012271.4-1.54.0026578-.8239024-.3227748-1.614971-.9044259-2.1984983-.581651-.5835274-1.3716674-.911506-2.1955741-.9115017h-.03c-.32106-3.8612785-3.5454019-6.833583-7.42-6.84-.2873501.0014154-.5744219.0181056-.86.05-.3346834-.8196936-1.0050082-1.45636972-1.8408373-1.74843176-.8358292-.29206205-1.7568016-.21142961-2.5291627.22143176.6179481.3372333 1.1015238.8762261 1.37 1.527.2855781-.0318944.5726499-.0485846.86-.05 3.8745981.006417 7.09894 2.9787215 7.42 6.84h.03c.8239067-.0000043 1.6139231.3279743 2.1955741.9115017.5816511.5835273.9070837 1.3745959.9044259 2.1984983-.0019397.5387729-.1395014 1.0683853-.4 1.54.6636194.9086143 1.0208581 2.0048467 1.02 3.13.0039557.7200627-.146063 1.4326516-.44 2.09-.2259809.5353504-.5403629 1.0288964-.93 1.46-.409424 2.2183778-1.8034875 4.1310771-3.79 5.2.5870393.8057729 1.033352 1.7051607 1.32 2.66.0672906.2066257.1010516.4226958.1.64-.0073399.5269707-.2155007 1.031278-.582 1.41.5779201.6257666 1.4807752.832465 2.273386.5204658.7926109-.3119993 1.3123153-1.0786666 1.308614-1.9304658.0010516-.2173042-.0327094-.4333743-.1-.64-.286648-.9548393-.7329607-1.8542271-1.32-2.66 1.9865125-1.0689229 3.380576-2.9816222 3.79-5.2.3896371-.4311036.7040191-.9246496.93-1.46.293937-.6573484.4439557-1.3699373.44-2.09.0008581-1.1251533-.3563806-2.2213857-1.02-3.13z" fill="#ad1457"/><path id="Shape" d="m40.562 25.483c-.1607695-.3192168-.4796268-.5284158-.8364614-.5487937-.3568347-.020378-.697435.1511611-.8935001.45s-.217808.6795769-.0570385.9987937c.3288222.6609419.1237272 1.4630251-.482 1.885-.3557078.2368235-.7951482.3117249-1.2092239.2061089s-.7639552-.3818448-.9627761-.7601089c-.2471474-.4940187-.8479813-.6941474-1.342-.447s-.6941474.8479813-.447 1.342c.8621165 1.7203669 2.955633 2.4161164 4.676 1.5539999 1.7203669-.8621165 2.4161164-2.9556329 1.554-4.6759999z" fill="#ad1457"/><path id="Shape" d="m34.5 24.994c1.2954474-.892562 2.1863108-2.2603015 2.479-3.806.0744538-.3538613-.0479307-.7203513-.3200693-.9584726-.2721387-.2381213-.6516311-.3107736-.9924777-.1900059-.3408465.1207677-.5899418.4161394-.651453.7724785-.1960875 1.031393-.7911685 1.9437787-1.656 2.539-1.6637494 1.1205406-3.8950927.8662081-5.264-.6-.3725161-.4086907-1.0058093-.4380161-1.4145-.0655s-.4380161 1.0058093-.0655 1.4145c.8483053.9366084 1.9694213 1.5830428 3.205 1.848-.5602336.7874224-1.4676196 1.2541633-2.434 1.252-.5522847 0-1 .4477153-1 1s.4477153 1 1 1c2.070157.0082594 3.9276303-1.2703233 4.659-3.207.882342-.1466426 1.7209651-.487899 2.455-.999z" fill="#ad1457"/><path id="Shape" d="m21.124 27.225c-.4503266.1303566-.935702.0426694-1.3119512-.2370151-.3762493-.2796845-.6000958-.7191967-.6050488-1.1879849v-.025c-.0005173-.2638693-.1064589-.5165907-.2942597-.7019501-.1878009-.1853594-.4418868-.2879853-.7057403-.2850499-.5546788.005491-1.0011256.4572951-1 1.012.0005462 1.9239635 1.5580414 3.4845898 3.482 3.489.3386405-.001026.6753901-.0505281 1-.147.525511-.1604185.8231611-.7147753.6665636-1.2414375s-.7087779-.8283308-1.2365636-.6755625z" fill="#ad1457"/><path id="Shape" d="m27.8 17c0-.5522847-.4477153-1-1-1-2.5393675.0027557-4.5972443 2.0606325-4.6 4.6 0 .5522847.4477153 1 1 1s1-.4477153 1-1c0-.6895629.2739278-1.350883.7615224-1.8384776s1.1489147-.7615224 1.8384776-.7615224c.5522847 0 1-.4477153 1-1z" fill="#ad1457"/><g fill="#ffdc00"><path id="Shape" d="m30 3c-.5522847 0-1-.44771525-1-1v-1c0-.55228475.4477153-1 1-1s1 .44771525 1 1v1c0 .55228475-.4477153 1-1 1z"/><path id="Shape" d="m46.117 9.883c-.4043959-.00008635-.7689341-.2437275-.923678-.61734544s-.0692299-.80366031.216678-1.08965456l1-1c.2510745-.25995658.6228779-.3642126.9725073-.27269716.3496295.09151544.6226744.3645604.7141899.71418984.0915154.34962943-.0127406.72143285-.2726972.97250732l-1 1c-.1874927.18754937-.4418052.29294336-.707.293z"/><path id="Shape" d="m13.883 9.883c-.2651948-.00005664-.5195073-.10545063-.707-.293l-1-1c-.2599566-.25107447-.3642126-.62287789-.2726972-.97250732.0915155-.34962944.3645604-.6226744.7141899-.71418984.3496294-.09151544.7214328.01274058.9725073.27269716l1 1c.2859079.28599425.3714219.71603662.216678 1.08965456s-.5192821.61725909-.923678.61734544z"/><path id="Shape" d="m21.581 5.675c-.4044291.00010177-.7691037-.24340926-.924-.617l-1.148-2.772c-.1459579-.33167747-.1010622-.71636394.1173512-1.00551658s.5761647-.43752159.9351117-.38781568c.3589471.04970591.6629179.28970815.7945371.62733226l1.149 2.772c.1019555.24516905.10222.52082095.0007353.76618523-.1014848.24536427-.2963859.44029399-.5417353.54181477-.1216058.04956448-.2516813.07503618-.383.075z"/><path id="Shape" d="m38.419 5.675c-.1313847-.00028124-.2614627-.02609305-.383-.076-.2451011-.10152817-.4398132-.29629087-.5412776-.54141839s-.1013645-.52052773.0002776-.76558161l1.149-2.772c.1316192-.33762411.43559-.57762635.7945371-.62733226.358947-.04970591.7166983.09866304.9351117.38781568s.2633091.67383911.1173512 1.00551658l-1.148 2.772c-.1548963.37359074-.5195709.61710177-.924.617z"/><path id="Shape" d="m50.325 17.582c-.4781994.0014557-.8905059-.3358504-.9838203-.8048591-.0933145-.4690088.1584816-.9384454.6008203-1.1201409l2.772-1.148c.3301134-.1366541.7080549-.0868143.9914575.1307452.2834026.2175596.4292108.5697864.3825.9240001-.0467108.3542136-.2788441.6566006-.6089575.7932547l-2.771 1.148c-.1213628.0505969-.2515126.0767628-.383.077z"/><path id="Shape" d="m9.675 17.582c-.13148737-.0002372-.26163717-.0264031-.383-.077l-2.771-1.148c-.33011341-.1366541-.56224669-.4390411-.60895749-.7932547-.04671079-.3542137.09909739-.7064405.38250001-.924.28340262-.2175596.66134407-.2673994.99145748-.1307453l2.772 1.148c.4423387.1816955.6941348.6511321.6008203 1.1201409-.0933144.4690087-.5056209.8063148-.9838203.8048591z"/></g><path id="Shape" d="m55.143 30.953c-.180728-.9415823-1.0042302-1.6224504-1.963-1.623h-1.931l-.142-.851c-.141662-.8547477-.8150907-1.5225343-1.671-1.657-.19-.03-.382-.05-.571-.076.3274689-1.5288062.0554127-3.1249886-.76-4.459.4308169-1.1175257.3504088-2.3676964-.2200195-3.4208244s-1.5736058-1.8034792-2.7449805-2.0531756c-.7488911-4.0080145-4.2356951-6.9214442-8.313-6.946-.1 0-.189.013-.284.016-.6515045-1.02315288-1.7256011-1.70220088-2.929298-1.85191345-1.2036969-.14971258-2.4114108.24552995-3.293702 1.07791345-1.111462-.72248434-2.4083569-1.1076628-3.734-1.109-2.1359492.00874082-4.1489959 1.00014234-5.458 2.688-1.4534677-.4238352-3.0208066-.1635964-4.2593137.7072106-1.2385071.8708071-2.0137239 2.2576432-2.1066863 3.7687894-1.5266629.641743-2.5200364 2.1359406-2.521 3.792.003134.2870658.0366541.572993.1.853-1.3501124 2.0353266-1.7029006 4.5736359-.959 6.9-.268.037-.542.07-.8.108-.86035287.129809-1.53978521.7979443-1.684 1.656l-.142.854h-1.936c-.9571508.0006578-1.77966295.679377-1.962 1.619l-4.379 22.482c-.17101461.8804657.06089033 1.7912635.6321472 2.4827341.57125686.6914705 1.42193438 1.0910707 2.3188528 1.0892659h20.854c.828 1.366 3.344 2 5.716 2 2.347 0 4.839-.619 5.691-2h20.879c.8967062.0017463 1.7471793-.3977201 2.318396-1.0889483.5712166-.6912283.8032791-1.6017364.632604-2.4820517zm-39.878-10.187c-.811938-.4881877-1.1994384-1.4573229-.9479146-2.3707266.2515237-.9134037 1.08052-1.5475526 2.0279146-1.5512734.6630417-.0019666 1.2870585.313201 1.679.848.2129303.2868843.5627369.4383793.9176511.3974184.3549143-.0409609.6610161-.2681548.803-.596.141984-.3278452.0982792-.7065341-.1146511-.9934184-.6790297-.9075527-1.708075-1.4881143-2.836-1.6.2981423-1.4004791 1.5331428-2.403058 2.965-2.407.1220124.0061884.2435554.0195448.364.04-.0804495.2050145-.150538.413945-.21.626-.1244587.5293486.1968889 1.0611281.7233961 1.1971062.5265073.1359781 1.0651711-.173691 1.2126039-.6971062.1137118-.439513.288408-.8609381.519-1.252.8870486-1.4860588 2.4873452-2.3992674 4.218-2.407.9418914.00417 1.8622497.2821189 2.649.8-.1498789.4211076-.2292778.8640519-.235 1.311 0 .5522847.4477153 1 1 1s1-.4477153 1-1c0-1.161731.941769-2.1035 2.1035-2.1035s2.1035.941769 2.1035 2.1035c0 .5522847.4477153 1 1 1s1-.4477153 1-1c0-.077-.019-.15-.023-.227 2.8633441.1766672 5.2711283 2.2120213 5.922 5.006-.4662349.1356122-.9042285.3541009-1.293.645-.2858125.2143594-.4355547.5649147-.3928203.9196152.0427344.3547006.2714531.6596589.6.8.3285469.1403412.7070078.0947442.9928203-.1196152.7991086-.5916463 1.9029846-.5444616 2.6486913.113217.7457068.6576787.9304614 1.7470062.4433087 2.613783-.217683.382746-.548483.6887447-.947.876-.4179164.2023494-.6415685.6657486-.5399835 1.1188268.1015849.4530783.5016789.776627.9659835.7811732.1466355.0002227.2914783-.0322303.424-.095.2650236-.1284335.515464-.2850007.747-.467.5169232 1.4695642.1927165 3.1040105-.846 4.265l-.024.025c-1.3027747 1.4112776-3.3809864 1.7926906-5.1.936-.4465174-.2218918-.8482461-.5242901-1.185-.892-.3730684-.40731-1.00569-.4350683-1.413-.062-.4073099.3730684-.4350683 1.00569-.062 1.413.4974609.5447388 1.0901739.9941027 1.749 1.326 1.4252119.7387529 3.0825117.8919607 4.619.427-.9882273 1.3493456-2.4672193 2.2562069-4.118 2.525-.5135633.083605-.8771992.5470675-.8362143 1.0657749.040985.5187073.4728938.919311.9932143.9212251.0532255-.0000175.1063747-.0040287.159-.012.6089289-.1054158 1.2040242-.279181 1.774-.518.3080574.5446553.5580939 1.1201415.746 1.717.0344142.1042128.0519685.2132519.052.323-.0002519.4322075-.2583895.8225619-.656.992-.4599764.1779113-.9822029.0375453-1.291-.347-.7744533-.9094404-1.7885601-1.5833173-2.927-1.945-2.161-.724-2.995-1.371-3.349-2.075.518862-.0647395 1.0315675-.1717622 1.533-.32.3415459-.1050361.6011113-.384306.6809203-.7326115.0798091-.3483054-.0322631-.7127306-.294-.956s-.6333744-.3284246-.9749203-.2233885c-.5611159.1721511-1.1403319.2785308-1.726.317-1.1283402.0881894-2.2619048-.0828373-3.314-.5-.3950277-.1540605-.8442701-.0422508-1.121.279-1.4559635 1.6724538-3.9478574 1.9567152-5.7430816.6551386-1.7952242-1.3015765-2.2998086-3.7583497-1.1629184-5.6621386.2847028-.4744126.1309126-1.0897972-.3435-1.3745s-1.0897972-.1309126-1.3745.3435c-.7729514 1.2795194-1.0570917 2.7954079-.8 4.268-2.2327928.4831347-4.5486183-.3194455-6.0036118-2.0806316-1.4549936-1.7611862-1.8061655-4.1868533-.9103882-6.2883684.2237217.2263432.4734607.425396.744.593.4723969.2767228 1.0794921.1221344 1.3620132-.3468178.2825212-.4689522.1354231-1.0779056-.3300132-1.3661822zm-4.4 8.033c.461-.068.937-.128 1.41-.19 1.8489234 2.9546304 5.3851304 4.389274 8.77 3.558.9094997 1.7261663 2.5714022 2.9299599 4.4950808 3.2559972 1.9236787.3260372 3.8894278-.262919 5.3169192-1.5929972.6795698.202697 1.3795072.3294705 2.087.378.483 1.832 1.879 2.942 4.812 3.925.7906821.2478808 1.4960375.7124592 2.036 1.341.6002998.7138339 1.4833272 1.1286667 2.416 1.135.4079034-.0001344.8115999-.0824381 1.187-.242 1.1335438-.4844411 1.8688883-1.5982775 1.869-2.831.0009195-.3214858-.0504164-.6409841-.152-.946-.2248837-.7065599-.5210757-1.3884046-.884-2.035 1.7004725-1.2224254 2.8850466-3.0340431 3.323-5.082.2129773-.253039.4055794-.5225483.576-.806.335.043.67.081 1.007.137l3.61 21.714c-7.0564939-2.3562987-14.6875061-2.3562987-21.744 0v-12.518c0-.5522847-.4477153-1-1-1s-1 .4477153-1 1v12.522c-7.0556977-2.358461-14.6865688-2.3612685-21.744-.008zm-8.214 25.833c-.18895586-.228251-.2659823-.5290209-.21-.82l4.379-22.482h1.6l-3.138 18.859c-.11037243.6864386.14237999 1.3811045.66806574 1.836115.52568576.4550104 1.24941507.6055441 1.91293426.397885 5.3310039-1.7271415 11.0104532-2.0875013 16.517-1.048l-.298 3.625h-20.652c-.30168092.0002141-.58756596-.1348382-.779-.368zm27.349 2.368c-2.409 0-3.791-.712-3.994-1.029l.344-4.15c1.0995773.2737803 2.1756369.6345846 3.218 1.079.1348035.0649541.2823664.0991122.432.1.1500306-.0002285.2980631-.0344161.433-.1 1.0417263-.447028 2.1174766-.8101815 3.217-1.086l.344 4.156c-.203.318-1.585 1.03-3.994 1.03zm27.349-2.368c-.191434.2331618-.4773191.3682141-.779.368h-20.649l-.3-3.632c5.5095832-1.037362 11.191496-.6739038 16.524 1.057.6633643.2049213 1.3855275.0522508 1.9091961-.4036178.5236686-.4558685.7743775-1.1501113.6628039-1.8353822l-3.135-18.855h1.6l4.38 22.48c.055473.2917534-.0226859.5930135-.213.821z" fill="#000"/></g></g></svg>