<svg xmlns="http://www.w3.org/2000/svg" viewBox="0 0 400 300"><g id="_014" data-name="014"><rect x="72.28" y="200.95" width="255.44" height="53.82" fill="#fff"/><path d="M327.72,255.24H72.28a.46.46,0,0,1-.46-.46V201a.46.46,0,0,1,.46-.46H327.72a.46.46,0,0,1,.46.46v53.83A.46.46,0,0,1,327.72,255.24Zm-255-.92H327.26V201.41H72.74Z" fill="#d1d3d4"/><rect x="68.37" y="200.95" width="263.26" height="8.68" rx="3.96" fill="#fff"/><path d="M327.67,210.09H72.33a4.42,4.42,0,0,1-4.42-4.42v-.75a4.43,4.43,0,0,1,4.42-4.43H327.67a4.43,4.43,0,0,1,4.42,4.43v.75A4.42,4.42,0,0,1,327.67,210.09ZM72.33,201.41a3.51,3.51,0,0,0-3.5,3.51v.75a3.5,3.5,0,0,0,3.5,3.5H327.67a3.5,3.5,0,0,0,3.5-3.5v-.75a3.51,3.51,0,0,0-3.5-3.51Z" fill="#d1d3d4"/><rect x="90.1" y="187.11" width="79.99" height="13.37" fill="#231f20"/><path d="M170.09,200.92h-80a.44.44,0,0,1-.44-.44V187.11a.44.44,0,0,1,.44-.44h80a.44.44,0,0,1,.44.44v13.37A.44.44,0,0,1,170.09,200.92ZM90.54,200h79.11V187.55H90.54Z" fill="#231f20"/><rect x="126.49" y="187.11" width="43.59" height="13.37" fill="#fff"/><path d="M170.09,200.94h-43.6a.46.46,0,0,1-.45-.46V187.11a.45.45,0,0,1,.45-.45h43.6a.45.45,0,0,1,.45.45v13.37A.46.46,0,0,1,170.09,200.94ZM127,200h42.68V187.57H127Z" fill="#231f20"/><rect x="104.16" y="177.43" width="64.77" height="9.91" fill="#231f20"/><path d="M168.93,187.78H104.16a.44.44,0,0,1-.44-.44v-9.91a.44.44,0,0,1,.44-.44h64.77a.45.45,0,0,1,.45.44v9.91A.44.44,0,0,1,168.93,187.78Zm-64.33-.88h63.89v-9H104.6Z" fill="#231f20"/><rect x="141.28" y="177.43" width="27.65" height="9.91" fill="#fff"/><path d="M168.93,187.8H141.28a.46.46,0,0,1-.46-.46v-9.91a.47.47,0,0,1,.46-.46h27.65a.46.46,0,0,1,.46.46v9.91A.45.45,0,0,1,168.93,187.8Zm-27.19-.91h26.74v-9H141.74Z" fill="#231f20"/><rect x="95.02" y="167.8" width="64.77" height="9.91" fill="#231f20"/><path d="M159.8,178.15H95a.44.44,0,0,1-.44-.44V167.8a.44.44,0,0,1,.44-.44H159.8a.44.44,0,0,1,.44.44v9.91A.44.44,0,0,1,159.8,178.15Zm-64.34-.88h63.9v-9H95.46Z" fill="#231f20"/><rect x="132.14" y="167.8" width="27.65" height="9.91" fill="#fff"/><path d="M159.8,178.17H132.14a.45.45,0,0,1-.45-.46V167.8a.46.46,0,0,1,.45-.46H159.8a.46.46,0,0,1,.45.46v9.91A.45.45,0,0,1,159.8,178.17Zm-27.2-.91h26.74v-9H132.6Z" fill="#231f20"/><circle cx="127.21" cy="172.85" r="2.09" fill="#fff"/><path d="M127.21,175.4a2.55,2.55,0,1,1,2.55-2.55A2.55,2.55,0,0,1,127.21,175.4Zm0-4.18a1.63,1.63,0,1,0,1.63,1.63A1.64,1.64,0,0,0,127.21,171.22Z" fill="#231f20"/><path d="M110.48,186.12a.47.47,0,0,1-.46-.46V179a.46.46,0,0,1,.46-.46.45.45,0,0,1,.46.46v6.71A.46.46,0,0,1,110.48,186.12Z" fill="#fff"/><path d="M119.15,199.37a.46.46,0,0,1-.46-.46V188.44a.47.47,0,0,1,.93,0v10.47A.46.46,0,0,1,119.15,199.37Z" fill="#fff"/><polygon points="131.36 50.84 134.85 48.14 149.56 54.27 179.45 44.17 182.15 48.3 150.88 66.23 131.36 50.84" fill="#e6e7e8"/><polygon points="142.31 98.93 130.25 49.56 149.47 57.83 184.17 45.26 193.1 95.12 161.13 106.14 142.31 98.93" fill="#fff"/><path d="M161.13,106.6a.45.45,0,0,1-.16,0l-18.82-7.21a.47.47,0,0,1-.28-.32L129.8,49.67a.45.45,0,0,1,.15-.45.44.44,0,0,1,.48-.07l19,8.19L184,44.83a.46.46,0,0,1,.38,0,.45.45,0,0,1,.22.32L193.55,95a.45.45,0,0,1-.3.51l-32,11Zm-18.43-8,18.44,7.07,31.45-10.84-8.77-48.94-34.2,12.38a.47.47,0,0,1-.33,0l-18.38-7.9Z" fill="#231f20"/><line x1="149.47" y1="57.83" x2="158.34" y2="103.53" fill="#fff"/><path d="M158.34,104a.47.47,0,0,1-.45-.37L149,57.91a.45.45,0,0,1,.36-.53.45.45,0,0,1,.53.36l8.88,45.71a.45.45,0,0,1-.36.53Z" fill="#231f20"/><path d="M171.11,115s-3.52-5.54-3-7a25.11,25.11,0,0,0,.82-4.42l-3.76.9s-3.88-9.7-4.27-13.07-7.63-.26-7.89,2.33-.39,9.32,1.68,13.2,7.89,13.19,7.89,13.19" fill="#fff"/><path d="M162.57,120.63a.47.47,0,0,1-.39-.22c-.06-.09-5.85-9.37-7.9-13.22s-2-10.48-1.74-13.45c.21-2.07,3.88-4.2,6.36-4.22h0a2.13,2.13,0,0,1,2.41,1.88c.34,2.9,3.39,10.79,4.1,12.58l3.38-.8a.42.42,0,0,1,.4.1.48.48,0,0,1,.16.39,26.45,26.45,0,0,1-.85,4.53c-.27.74,1.33,4,3,6.55a.46.46,0,0,1-.77.49c-.61-.95-3.61-5.8-3.05-7.36a20.06,20.06,0,0,0,.72-3.66l-3.13.75a.47.47,0,0,1-.53-.28c-.16-.4-3.9-9.8-4.3-13.19,0-.26-.12-1.06-1.49-1.06h0c-2.2,0-5.31,2-5.46,3.39-.28,2.87-.32,9.28,1.63,12.93,2,3.82,7.82,13.08,7.88,13.17a.46.46,0,0,1-.15.63A.42.42,0,0,1,162.57,120.63Z" fill="#231f20"/><path d="M282,120.53a.45.45,0,0,1-.42-.62A28.23,28.23,0,0,0,276,91q-.54-.57-1.11-1.14c-2.3-2.32-4.9-5-4.74-8.34a10.9,10.9,0,0,1,.36-2.08,13.58,13.58,0,0,0,.31-1.7c.33-3.63-2.67-6.65-5.24-8.54-.62-.46-1.27-.9-1.91-1.35-2.41-1.66-4.9-3.37-6.4-5.94-1.79-3-2-6.53-2.27-9.91-.22-3-.44-6.17-1.78-8.94a19.43,19.43,0,0,0-29.49-6.9A17,17,0,0,0,218.34,43a28.84,28.84,0,0,0-1.67,9.62c-.35,6.83-1,13.42-4.74,19a43.68,43.68,0,0,1-3.83,4.64c-2.56,2.84-5,5.52-5.75,9a10.35,10.35,0,0,0,3.7,10.15.45.45,0,0,1,.08.64.46.46,0,0,1-.64.08,11.28,11.28,0,0,1-4-11.06c.81-3.76,3.43-6.66,6-9.46a42.42,42.42,0,0,0,3.74-4.55c3.64-5.36,4.25-11.81,4.58-18.5a29.67,29.67,0,0,1,1.75-9.93,18,18,0,0,1,5.63-7.23A20.34,20.34,0,0,1,254,42.62c1.42,2.92,1.65,6.15,1.87,9.27.24,3.42.47,6.65,2.15,9.51,1.4,2.39,3.8,4.05,6.12,5.65.66.45,1.31.9,1.94,1.36,2.76,2,6,5.3,5.61,9.36a12.07,12.07,0,0,1-.34,1.83,11,11,0,0,0-.33,1.92c-.14,3,2.21,5.35,4.48,7.65.38.39.76.77,1.12,1.15a28.77,28.77,0,0,1,5.81,29.93A.46.46,0,0,1,282,120.53Z" fill="#231f20"/><path d="M211,92.17,192.18,133.4l-18.32-20.51-15.27,7.2s33.72,50.89,43,46.26,22.58-45.71,22.58-45.71Z" fill="#3465bf"/><path d="M235.28,80.71s-20.4,2.24-25.2,12.11-3.71,55.64-3.71,55.64l75.27,8.07s-1.91-37.63-5.46-54.33S261.78,74.49,235.28,80.71Z" fill="#3465bf"/><polygon points="229.24 85.7 236.82 126.53 247.3 81.79 229.24 85.7" fill="#231f20"/><path d="M236.82,127h0a.46.46,0,0,1-.42-.36L228.8,85.78a.45.45,0,0,1,.34-.51l18.07-3.91a.48.48,0,0,1,.41.12.48.48,0,0,1,.11.41l-10.48,44.74A.43.43,0,0,1,236.82,127ZM229.75,86l7.12,38.34,9.84-42Z" fill="#231f20"/><path d="M229.31,73.8l-.07,11.9s1.2,6.66,8.44,4.63a15,15,0,0,0,9.62-8.54l-.82-20.61c0-.87-3.55-4.17-3.41-11.74a18.34,18.34,0,0,1-13.5-6.09s-3,4.54-4.34,6a17.87,17.87,0,0,0-2.72,3.59c-1.23,2.29-1.18,5.15-1.12,7.69a49.86,49.86,0,0,0,.9,9C223.45,75.18,229.31,73.8,229.31,73.8Z" fill="#fff"/><path d="M235.11,91.17a6.11,6.11,0,0,1-3.34-.91,7.2,7.2,0,0,1-3-4.48l.06-11.44a7.06,7.06,0,0,1-4.57-.86,5.66,5.66,0,0,1-2.44-3.82,49.32,49.32,0,0,1-.91-9c-.05-2.45-.12-5.49,1.17-7.92A18.46,18.46,0,0,1,224.89,49c1.28-1.39,4.27-5.88,4.3-5.92a.43.43,0,0,1,.36-.2.39.39,0,0,1,.37.17A18.12,18.12,0,0,0,243.08,49a.43.43,0,0,1,.32.14.42.42,0,0,1,.13.32,17.91,17.91,0,0,0,2.8,10.39,3.44,3.44,0,0,1,.61,1.33h0s0,.46.82,20.61a.51.51,0,0,1,0,.17,15.29,15.29,0,0,1-9.93,8.82A9.86,9.86,0,0,1,235.11,91.17Zm-5.42-5.47a6.5,6.5,0,0,0,2.57,3.79,6.42,6.42,0,0,0,5.3.4,14.67,14.67,0,0,0,9.28-8.17c-.06-1.52-.81-20.36-.82-20.52a4.58,4.58,0,0,0-.48-.88,18.78,18.78,0,0,1-2.93-10.43,18.9,18.9,0,0,1-13-5.79,65.61,65.61,0,0,1-4.05,5.54,18,18,0,0,0-2.65,3.49c-1.18,2.22-1.12,5-1.06,7.46a49.58,49.58,0,0,0,.88,8.89,4.81,4.81,0,0,0,2,3.23,6.5,6.5,0,0,0,4.45.64.43.43,0,0,1,.38.09.47.47,0,0,1,.18.36l-.08,11.9Z" fill="#231f20"/><path d="M229.38,79.64s4.83.22,7.94-3A8.34,8.34,0,0,0,240,70.17s-5.22,3.51-10.65,3.63Z" fill="#231f20"/><path d="M229.59,80.09h-.23a.43.43,0,0,1-.42-.43l-.07-5.85a.44.44,0,0,1,.43-.44c5.23-.12,10.37-3.52,10.42-3.55a.42.42,0,0,1,.42,0,.44.44,0,0,1,.26.34c0,.14.45,3.5-2.77,6.83A11.61,11.61,0,0,1,229.59,80.09Zm.16-5.87.06,5A10.81,10.81,0,0,0,237,76.33,8.49,8.49,0,0,0,239.53,71,23.1,23.1,0,0,1,229.75,74.22Z" fill="#231f20"/><path d="M230.65,56.32S226.82,62,227.73,63s3.46.34,3.46.34" fill="#fff"/><path d="M229.5,64a2.84,2.84,0,0,1-2.1-.69c-1-1.09,1.38-5,2.88-7.26a.44.44,0,1,1,.73.49c-1.89,2.83-3.27,5.71-2.95,6.17.59.65,2.42.36,3,.21a.44.44,0,0,1,.22.85A7.88,7.88,0,0,1,229.5,64Z" fill="#231f20"/><path d="M226.57,66.24s3.43,5.08,9.47.19" fill="#fff"/><path d="M231,69a6,6,0,0,1-.85-.06,6.21,6.21,0,0,1-4-2.46.44.44,0,0,1,.12-.61.43.43,0,0,1,.61.12,5.44,5.44,0,0,0,3.39,2.07c1.68.25,3.52-.42,5.44-2a.44.44,0,0,1,.62.07.43.43,0,0,1-.06.62A8.59,8.59,0,0,1,231,69Z" fill="#231f20"/><path d="M215.31,147.92h0a.45.45,0,0,1-.42-.47l2.84-47.24a.42.42,0,0,1,.46-.41.43.43,0,0,1,.42.47l-2.84,47.23A.44.44,0,0,1,215.31,147.92Z" fill="#231f20"/><path d="M269.42,153.48c.35,1,11.66,33.7-1.31,45.38-13.83,12.44-83.78,5.89-83.78,5.89l-7.64-23.57c-.85-8.37-1.28-14.27,15.08-15.8l22.9-4.69.64-13.21Z" fill="#231f20"/><path d="M222.59,206.91H221c-19-.08-36.57-1.71-36.74-1.72a.44.44,0,0,1-.38-.31l-7.63-23.56c-.46-4.39-.88-8.45,1.56-11.42,2.22-2.71,6.64-4.28,13.89-5l22.52-4.61.62-12.88a.43.43,0,0,1,.16-.31.4.4,0,0,1,.33-.1l54.11,6a.44.44,0,0,1,.37.3l-.42.14.44-.07c1.18,3.49,11.16,34.42-1.45,45.77C262.71,204.31,247.29,206.91,222.59,206.91Zm-37.93-2.58c4.91.44,70.07,6,83.16-5.8,12-10.8,2.68-40.41,1.27-44.65L215.73,148l-.61,12.74a.45.45,0,0,1-.36.41l-22.9,4.69c-7.05.66-11.28,2.14-13.34,4.65-2.21,2.68-1.81,6.57-1.39,10.68Z" fill="#231f20"/><path d="M195.94,183.45s-3.63-17.49-16.83-13.53,16.17,69,16.17,73.27-11.22,17.16-11.22,17.16a95.07,95.07,0,0,0,9.57-1c3.47-.66,13-14.52,13.37-16S200.4,196,195.94,183.45Z" fill="#fff"/><path d="M184.06,260.81a.46.46,0,0,1-.41-.26.46.46,0,0,1,.07-.5c3.09-3.55,11.11-13.48,11.11-16.86,0-1-1.91-6.05-4.33-12.47-7-18.6-18.74-49.74-14.26-58.8a4.49,4.49,0,0,1,2.74-2.44,11.22,11.22,0,0,1,9.29.89c6,3.57,8,12.27,8.11,13,4.28,12.07,11.5,58.18,11.07,60.12-.31,1.39-10,15.64-13.73,16.36a94.91,94.91,0,0,1-9.63,1Zm-1.22-91a12.34,12.34,0,0,0-3.6.56,3.56,3.56,0,0,0-2.18,2c-4.31,8.7,7.79,40.82,14.3,58.07,2.88,7.65,4.38,11.69,4.38,12.79,0,3.81-8.13,13.69-10.63,16.64,1.91-.13,5.91-.44,8.44-.92,3.19-.61,12.69-14.24,13-15.66s-6.51-46.91-11-59.64c0,0,0,0,0-.06s-1.93-9-7.7-12.4A9.53,9.53,0,0,0,182.84,169.8Z" fill="#231f20"/><path d="M183.4,259.25a5.33,5.33,0,0,0-4.29,3.08c-1.21,2.86,4,4.51,8.8,4.73a38.89,38.89,0,0,0,12.43-1.54,12.63,12.63,0,0,0,4.18-3.3s0,3.52,1.21,3.41a46.69,46.69,0,0,0,5.17-.55c.44-.22-1.43-13.86-3.9-21.73,0,0-10,14.14-13.15,14.8S183.4,259.25,183.4,259.25Z" fill="#231f20"/><path d="M189.31,267.53c-.47,0-.95,0-1.42,0-3.35-.15-7.73-1.06-9-3.11a2.32,2.32,0,0,1-.15-2.23,5.71,5.71,0,0,1,4.66-3.35h0c.07,0,7.26-.45,10.38-1.09,2.48-.52,10.14-10.73,12.88-14.62a.42.42,0,0,1,.43-.18.43.43,0,0,1,.35.3A112.83,112.83,0,0,1,210.48,257c1.32,8.11.88,8.33.62,8.46a20.66,20.66,0,0,1-4.22.51l-1.11.09a1,1,0,0,1-.79-.28,4.24,4.24,0,0,1-.84-2.49,11.09,11.09,0,0,1-3.64,2.63A39,39,0,0,1,189.31,267.53Zm-5.88-7.84a4.83,4.83,0,0,0-3.91,2.81,1.43,1.43,0,0,0,.09,1.42c.89,1.41,4.31,2.52,8.32,2.7a38.28,38.28,0,0,0,12.26-1.52,12.21,12.21,0,0,0,4-3.16.44.44,0,0,1,.78.28c0,1,.19,2.54.61,2.92a.16.16,0,0,0,.12.05l1.12-.09c1-.08,3.05-.24,3.72-.37.08-1.78-1.53-13.05-3.69-20.39-2.24,3.12-10,13.63-12.9,14.24A105.23,105.23,0,0,1,183.43,259.69Z" fill="#231f20"/><path d="M226.31,243.41s-5.73-56.55-8.37-67.11-17.82-13.86-22.44-1.1,18.26,62.93,16.5,68.21S203.64,259,203.64,259s7,3.52,12.1,0S226.31,243.41,226.31,243.41Z" fill="#fff"/><path d="M210.34,261.06a17.22,17.22,0,0,1-6.9-1.62.49.49,0,0,1-.24-.29.49.49,0,0,1,.06-.37c.06-.1,6.59-10.35,8.31-15.52.63-1.89-2.58-11.27-6-21.19-6-17.4-13.4-39-10.51-47,2-5.63,6.41-8.84,11.68-8.56a12.83,12.83,0,0,1,11.64,9.7c2.62,10.47,8.31,66.61,8.37,67.17a.51.51,0,0,1,0,.24c-.23.5-5.61,12.25-10.72,15.8A9.69,9.69,0,0,1,210.34,261.06Zm-6-2.23c1.62.68,7.12,2.64,11.17-.18,4.65-3.23,9.79-14.1,10.36-15.32-.3-3-5.8-56.75-8.34-66.92a11.91,11.91,0,0,0-10.8-9c-4.82-.26-8.87,2.73-10.77,8-2.78,7.67,4.9,30.06,10.51,46.41,4.3,12.51,6.69,19.7,6,21.78C210.87,248.26,205.61,256.76,204.31,258.83Z" fill="#231f20"/><path d="M203.64,259a18.75,18.75,0,0,0-5.39,3.79c-1.81,2.15-3.46,3.14-1,4.79s18,.49,20.13-.17,5.78-5.77,5.78-5.77-.17,5.77.49,5.94A24,24,0,0,0,228,267a89.1,89.1,0,0,0-1.65-23.54S221,255.56,214.26,258,203.64,259,203.64,259Z" fill="#231f20"/><path d="M204.31,268.89c-3.35,0-6.27-.24-7.29-.91a2.75,2.75,0,0,1-1.44-1.81c-.11-.92.6-1.71,1.51-2.7l.83-.93a18.65,18.65,0,0,1,5.54-3.91.45.45,0,0,1,.34,0s3.81,1.38,10.31-1,11.74-14.27,11.79-14.39a.45.45,0,0,1,.45-.26.45.45,0,0,1,.39.35A90.37,90.37,0,0,1,228.39,267a.42.42,0,0,1-.34.39,20.15,20.15,0,0,1-4.49.66c-.3-.08-.9-.23-.86-5-1.22,1.58-3.54,4.33-5.18,4.84A77.84,77.84,0,0,1,204.31,268.89Zm-.64-9.39a17.78,17.78,0,0,0-5.08,3.61c-.29.34-.58.66-.84.95-.76.83-1.36,1.48-1.29,2,0,.35.38.74,1,1.18,2.22,1.48,17.35.52,19.75-.22,1.65-.5,4.56-4.22,5.55-5.61a.44.44,0,0,1,.8.27,24.69,24.69,0,0,0,.27,5.51,24.84,24.84,0,0,0,3.66-.6,90.07,90.07,0,0,0-1.41-21.77c-1.55,3.2-6.08,11.57-11.72,13.63C208.32,260.68,204.54,259.77,203.67,259.5Z" fill="#231f20"/><path d="M272.38,177.54c.69,1,2.89,22.63,2.89,22.63s24.52,2.22,24.87.5-12.5-6.09-12.5-6.09l-4-17.15" fill="#fff"/><path d="M295.19,201.78c-1.84,0-4.31-.07-7.64-.26-6.11-.33-12.26-.88-12.32-.89a.46.46,0,0,1-.42-.41c-.83-8.17-2.33-21.5-2.82-22.44a.45.45,0,0,1,.13-.63.47.47,0,0,1,.64.14c.68,1,2.36,17,2.92,22.46,10.91,1,22.59,1.51,24,.76-.43-1-6.57-3.6-12.18-5.5a.43.43,0,0,1-.29-.32l-4-17.16a.46.46,0,0,1,.34-.55.47.47,0,0,1,.55.35l4,16.9c5,1.69,12.92,4.71,12.56,6.52C300.5,201.19,300.38,201.78,295.19,201.78Z" fill="#231f20"/><path d="M275.49,101l16.73,81.55-23.07.6s-8-43.18-8.49-49.66S275.49,101,275.49,101Z" fill="#3465bf"/><circle cx="224.35" cy="55.24" r="5.21" fill="#fff"/><path d="M224.36,60.91h-.23A5.66,5.66,0,1,1,230,55.47l-.46,0,.46,0a5.67,5.67,0,0,1-5.65,5.44Zm0-10.42a5.15,5.15,0,1,0,.19,0Z" fill="#231f20"/><circle cx="235.83" cy="55.7" r="5.21" fill="#fff"/><path d="M235.83,61.36h-.23A5.68,5.68,0,0,1,232,51.53a5.67,5.67,0,0,1,9.51,4.39h0a5.66,5.66,0,0,1-5.66,5.44Zm0-10.42a4.75,4.75,0,0,0-.18,9.5,4.63,4.63,0,0,0,3.41-1.26,4.71,4.71,0,0,0,1.52-3.3h0A4.74,4.74,0,0,0,236,51Z" fill="#231f20"/><path d="M199.1,141.45a.43.43,0,0,1-.33-.15l-22.26-25.66a.44.44,0,0,1,.05-.63.43.43,0,0,1,.62,0l22.26,25.66a.43.43,0,0,1-.05.62A.41.41,0,0,1,199.1,141.45Z" fill="#231f20"/><polygon points="157.87 65.76 178.98 57.66 180.88 67.34 159.61 74.17 157.87 65.76" fill="#e6e7e8"/><ellipse cx="224.17" cy="54.67" rx="1.23" ry="0.66" transform="translate(160.72 276.51) rotate(-87.75)" fill="#231f20"/><ellipse cx="235.91" cy="55.37" rx="1.23" ry="0.66" transform="translate(171.32 288.92) rotate(-87.75)" fill="#231f20"/><path d="M251.43,59.91a.46.46,0,0,1-.45-.42c-.23-2.74-7.22-2.82-9.9-2.62a.45.45,0,0,1-.49-.42A.46.46,0,0,1,241,56c1.08-.08,10.53-.68,10.88,3.45a.46.46,0,0,1-.42.5Z" fill="#231f20"/><path d="M242.23,60.16a4.19,4.19,0,0,1,1.33-2.28,7.41,7.41,0,0,1,2.19-1.2,3.29,3.29,0,0,1,1.33-.29,2.55,2.55,0,0,1,.92.3,3.22,3.22,0,0,1,1.59,1.56,3.81,3.81,0,0,1,.15,1.81,7.63,7.63,0,0,1-.42,1.95,5,5,0,0,1-6.58,2.87" fill="#fff"/><path d="M244.61,65.64a5.42,5.42,0,0,1-2-.39.4.4,0,1,1,.3-.74A4.64,4.64,0,0,0,249,61.87a6.94,6.94,0,0,0,.39-1.85,3.43,3.43,0,0,0-.12-1.63,2.83,2.83,0,0,0-1.4-1.34,2.11,2.11,0,0,0-.77-.26,2.74,2.74,0,0,0-1.15.26,7.27,7.27,0,0,0-2.08,1.13,3.78,3.78,0,0,0-1.2,2.06.41.41,0,0,1-.47.31.4.4,0,0,1-.31-.47,4.57,4.57,0,0,1,1.46-2.5,7.73,7.73,0,0,1,2.3-1.27,3.4,3.4,0,0,1,1.52-.31,2.76,2.76,0,0,1,1.06.34A3.54,3.54,0,0,1,250,58.1a4.06,4.06,0,0,1,.17,2,7.72,7.72,0,0,1-.44,2.06,5.52,5.52,0,0,1-2.9,3A5.46,5.46,0,0,1,244.61,65.64Z" fill="#231f20"/><line x1="268.82" y1="181.18" x2="255.24" y2="98.28" fill="#fff"/><path d="M268.82,181.64a.46.46,0,0,1-.45-.38L254.79,98.35a.45.45,0,0,1,.37-.52.45.45,0,0,1,.53.37l13.58,82.91a.45.45,0,0,1-.38.52Z" fill="#231f20"/><path d="M227.81,161.75a.51.51,0,0,1-.2,0c-5.23-2.34-12.74-.55-12.82-.54a.49.49,0,0,1-.6-.36.5.5,0,0,1,.37-.61c.32-.08,7.92-1.89,13.46.6a.5.5,0,0,1,.25.66A.51.51,0,0,1,227.81,161.75Z" fill="#fff"/><line x1="245.46" y1="138.54" x2="256.72" y2="145.11" fill="#fff"/><path d="M256.72,145.57a.39.39,0,0,1-.23-.07l-11.26-6.57a.46.46,0,0,1-.17-.62.47.47,0,0,1,.63-.17L257,144.71a.47.47,0,0,1,.17.63A.48.48,0,0,1,256.72,145.57Z" fill="#231f20"/><line x1="226.88" y1="135.72" x2="220.12" y2="141.17" fill="#fff"/><path d="M220.12,141.62a.44.44,0,0,1-.36-.17.45.45,0,0,1,.07-.64l6.76-5.44a.46.46,0,1,1,.57.71l-6.76,5.44A.42.42,0,0,1,220.12,141.62Z" fill="#231f20"/><path d="M137.7,233.76a28.06,28.06,0,0,1,7.17-4.67c.22,7.67-2.89,14.72-5.77,19.55h-9.35" fill="#fff"/><path d="M139.1,249.16h-9.35a.52.52,0,0,1-.52-.52.52.52,0,0,1,.52-.52h9.06c2.59-4.41,5.55-11,5.56-18.23a29,29,0,0,0-6.33,4.26.51.51,0,0,1-.72,0,.52.52,0,0,1,0-.73,28.08,28.08,0,0,1,7.32-4.77.52.52,0,0,1,.71.46c.22,7.91-3.06,15.15-5.85,19.83A.51.51,0,0,1,139.1,249.16Z" fill="#231f20"/><path d="M124.3,235.83c2.3-12,11.69-19.54,11.69-19.54a43.45,43.45,0,0,1,1.71,17.47,64.68,64.68,0,0,1-3.23,14.88H124.4" fill="#fff"/><path d="M134.47,249.16H124.4a.51.51,0,0,1-.51-.52.52.52,0,0,1,.51-.52h9.7a64.33,64.33,0,0,0,3.09-14.4,43.29,43.29,0,0,0-1.45-16.52c-2.06,1.86-9,8.78-10.94,18.72a.51.51,0,1,1-1-.19c2.31-12,11.79-19.76,11.88-19.84a.5.5,0,0,1,.47-.09.51.51,0,0,1,.34.33,43.8,43.8,0,0,1,1.74,17.68,65,65,0,0,1-3.27,15A.5.5,0,0,1,134.47,249.16Z" fill="#231f20"/><path d="M119.33,248.64h8.91c.08-2.64-.52-6.63-3.38-11.81-.19-.35-.38-.68-.57-1-5.16-8.74-9.88-8.64-9.88-8.64C112.42,236.38,116.63,244.58,119.33,248.64Z" fill="#fff"/><path d="M128.24,249.16h-8.91a.51.51,0,0,1-.43-.23c-2.74-4.13-7-12.46-5-21.85a.5.5,0,0,1,.49-.41c.23,0,5.08,0,10.34,8.9.19.33.38.66.57,1,3,5.42,3.52,9.56,3.44,12.08A.52.52,0,0,1,128.24,249.16Zm-8.63-1h8.12c0-2.43-.63-6.19-3.32-11l-.56-1c-4.09-6.92-7.83-8.13-9-8.34C113.13,236.41,117,244.13,119.61,248.13Z" fill="#231f20"/><polygon points="120.95 262.77 138.42 262.77 141.24 248.65 118.14 248.65 120.95 262.77" fill="#231f20"/></g></svg>